:SAMPLES-PER-SECOND 30
:FULLY-SPECIFIED
:DEGREES
466
root  7.92357 39.8499 -3.45378 -103.632 -83.6993 106.325
RightUpLeg  7.13732 -12.3883 -11.8899
RightLeg  9.44206 -11.0691 2.9014
RightFoot  -19.5315 0.488695 8.66598
RightToes  0.00048216 0.542163 -0.142577
Spine  10.2478 1.40612 4.4969
Spine1  8.23409 3.22242 -5.60347
HEad  5.04461 -0.422535 -2.53139
LeftShoulder1  8.63162 -12.6009 -46.761
LeftArm  -10.5211 22.2189 -25.7703
LeftForeArm  31.3905 -30.8329 -4.98719
LeftHand  -0.25398 0.0180481 5.50724
RightShoulder  5.57264 9.17357 37.9169
RightArm  -0.212974 -8.38345 38.5376
RightForeArm  17.3796 11.3521 7.34936
RightHand  -0.738283 1.07897 -13.3576
LeftUpLeg  -27.1428 10.2264 -8.36274
LeftLeg  12.407 6.92356 -0.0813529
LeftFoot  -0.718859 0.050883 -0.502826
LeftToes  1.06245e-005 4.65856e-005 -8.18504e-006
467
root  7.14957 39.7127 -3.33779 -101.453 -83.8831 104.641
RightUpLeg  7.79288 -12.2422 -11.8664
RightLeg  9.48197 -11.9272 2.61566
RightFoot  -19.6066 0.420376 7.65417
RightToes  0.00048216 0.542163 -0.142577
Spine  9.98116 1.29378 3.81753
Spine1  8.34927 2.93796 -5.151
HEad  5.29207 -0.14967 -1.91667
LeftShoulder1  8.55859 -12.5164 -46.606
LeftArm  -9.23447 23.5763 -25.4135
LeftForeArm  31.0542 -29.3133 -4.65576
LeftHand  -0.25398 0.0180481 5.50724
RightShoulder  5.58759 9.14948 38.1111
RightArm  -1.28987 -10.6283 38.141
RightForeArm  19.8423 10.4401 7.31434
RightHand  -0.564392 0.0521313 -12.0489
LeftUpLeg  -27.9589 10.3013 -7.98056
LeftLeg  11.7115 9.45172 -0.203011
LeftFoot  -1.05107 -0.0520773 0.659919
LeftToes  1.06245e-005 4.65856e-005 -8.18504e-006
468
root  6.25925 39.5092 -3.19239 -97.741 -84.0174 101.284
RightUpLeg  9.04713 -12.1433 -12.166
RightLeg  9.29116 -12.1029 2.47815
RightFoot  -20.2621 0.518603 8.38035
RightToes  0.00048216 0.542163 -0.142577
Spine  9.78586 1.12736 2.99444
Spine1  8.38907 2.61514 -4.78983
HEad  5.67692 -0.0254373 -1.27275
LeftShoulder1  8.47357 -12.4064 -46.4578
LeftArm  -7.93311 24.9786 -24.9951
LeftForeArm  30.7497 -27.5519 -4.27973
LeftHand  -0.25398 0.0180481 5.50724
RightShoulder  5.56689 9.06712 38.2307
RightArm  -1.93477 -13.0999 37.7199
RightForeArm  21.3898 10.4921 7.08414
RightHand  -0.40886 -0.974896 -10.6235
LeftUpLeg  -28.6478 11.3383 -8.43748
LeftLeg  12.0588 11.2894 0.345381
LeftFoot  -2.19522 -0.102412 1.43942
LeftToes  1.06245e-005 4.65856e-005 -8.18504e-006
469
root  5.23477 39.2418 -3.00794 -96.6914 -84.0739 100.455
RightUpLeg  10.7798 -12.055 -12.7315
RightLeg  8.91041 -11.6977 2.40739
RightFoot  -21.0819 0.7135 10.0404
RightToes  0.00048216 0.542163 -0.142577
Spine  9.33958 1.12634 2.34141
Spine1  8.82053 2.63143 -4.82912
HEad  5.96856 -0.135445 -0.622042
LeftShoulder1  8.41151 -12.3549 -46.2617
LeftArm  -6.49885 26.2723 -24.5707
LeftForeArm  30.0878 -25.5045 -3.86723
LeftHand  -0.25398 0.0180481 5.50724
RightShoulder  5.48972 8.93208 38.096
RightArm  -2.25628 -15.6395 37.3765
RightForeArm  21.6625 11.0686 6.84906
RightHand  -0.326309 -1.46798 -9.44102
LeftUpLeg  -28.892 12.7365 -9.21689
LeftLeg  13.1578 12.1275 1.32325
LeftFoot  -2.74569 -0.0984445 1.53778
LeftToes  1.06245e-005 4.65856e-005 -8.18504e-006
470
root  4.05171 38.9517 -2.78404 -99.4251 -83.7717 103.343
RightUpLeg  12.4816 -12.2426 -13.8537
RightLeg  9.08651 -11.2273 2.08992
RightFoot  -21.6442 0.799852 10.4857
RightToes  0.00048216 0.542163 -0.142577
Spine  8.63878 1.34289 1.39272
Spine1  9.28225 2.92688 -4.9975
HEad  6.37387 -0.281111 0.173056
LeftShoulder1  8.33726 -12.299 -46.0076
LeftArm  -5.10923 27.7585 -24.1232
LeftForeArm  29.154 -23.4635 -3.52741
LeftHand  -0.25398 0.0180481 5.50724
RightShoulder  5.384 8.8069 37.7015
RightArm  -2.0338 -18.0993 37.0131
RightForeArm  20.7872 11.7053 6.75518
RightHand  -0.316016 -1.37111 -8.9127
LeftUpLeg  -28.9165 14.5888 -10.6065
LeftLeg  14.9538 11.1728 2.47325
LeftFoot  -1.30882 -0.169456 1.98587
LeftToes  1.06245e-005 4.65856e-005 -8.18504e-006
471
root  2.76477 38.6658 -2.53024 -99.9092 -82.9243 103.751
RightUpLeg  14.0516 -13.1336 -15.9266
RightLeg  10.4682 -9.93783 1.32835
RightFoot  -22.0568 0.890203 11.0227
RightToes  0.00048216 0.542163 -0.142577
Spine  8.2875 1.46784 -0.598388
Spine1  9.18576 2.92463 -4.73723
HEad  7.19437 -0.335838 1.103
LeftShoulder1  8.27783 -12.1781 -46.0327
LeftArm  -4.40501 29.3094 -23.3093
LeftForeArm  28.6173 -21.3383 -3.48931
LeftHand  -0.25398 0.0180481 5.50724
RightShoulder  5.31063 8.74335 37.3422
RightArm  -1.68536 -20.0183 36.397
RightForeArm  20.0894 12.0082 6.75274
RightHand  -0.323486 -1.24963 -8.87995
LeftUpLeg  -29.0253 16.1063 -12.6086
LeftLeg  17.9268 9.17424 3.59496
LeftFoot  0.667266 -0.38264 3.60185
LeftToes  1.06245e-005 4.65856e-005 -8.18504e-006
472
root  1.5004 38.4195 -2.24978 -94.4208 -81.852 97.7326
RightUpLeg  15.4627 -14.8278 -18.6082
RightLeg  13.4073 -7.08311 -0.0826515
RightFoot  -21.8249 1.2192 14.9112
RightToes  0.00048216 0.542163 -0.142577
Spine  8.69628 1.27295 -3.27949
Spine1  8.81953 2.39002 -4.14225
HEad  8.37788 -0.516373 1.90848
LeftShoulder1  8.34558 -12.1206 -46.5942
LeftArm  -4.93676 29.9349 -22.0518
LeftForeArm  28.9001 -18.2809 -3.871
LeftHand  -0.25398 0.0180481 5.50724
RightShoulder  5.28459 8.71457 37.2347
RightArm  -2.67718 -20.8228 35.6088
RightForeArm  20.9071 11.5791 6.64025
RightHand  -0.301659 -1.48563 -8.71761
LeftUpLeg  -28.6028 15.126 -13.7423
LeftLeg  21.9414 9.13362 4.37062
LeftFoot  0.266392 -0.556905 5.49613
LeftToes  1.06245e-005 4.65856e-005 -8.18504e-006
